<svg xmlns="http://www.w3.org/2000/svg" viewBox="0 0 690.45 243.15"><path d="M187.45,364.31q0,56.76-39.91,56.76-19.84,0-29.92-14.47t-10.07-42.29q0-56.68,39.91-56.68,19.5,0,29.75,14.19T187.45,364.31Zm-25.48,0q0-22.26-3.47-29.63t-11-7.38q-7.5,0-11,7.42T133,364.31q0,21.76,3.43,29.43t11,7.66q7.5,0,11-7.34T162,364.31Z" transform="translate(-31 -247.1)"/><path d="M204.3,309.32h24.19v45.91l26.73-45.91h24.47L252.05,349.8l30,69.58H257l-19.36-50.67L228.49,382v37.41H204.3Z" transform="translate(-31 -247.1)"/><path d="M310.89,309.32h24.35l31.44,110.06H342l-5.49-22.74h-31l-5.4,22.74H277.83Zm21,68.45-11.12-45.09-10.67,45.09Z" transform="translate(-31 -247.1)"/><path d="M375.88,309.32h24.18v89.42h35.48v20.64H375.88Z" transform="translate(-31 -247.1)"/><path d="M446.18,309.32h24.19V419.38H446.18Z" transform="translate(-31 -247.1)"/><path d="M558.5,333.27l-20,7.66q-4.28-13.64-15.64-13.63a11.55,11.55,0,0,0-8.42,3,9.53,9.53,0,0,0-3.11,7.06,8.88,8.88,0,0,0,3.67,7.46q3.66,2.78,15.36,7.29A91.59,91.59,0,0,1,547.09,360a29.07,29.07,0,0,1,9.83,10.53,30.79,30.79,0,0,1,3.75,15.44q0,15.39-10.6,25.27t-28.42,9.88q-29.91,0-38.22-30.24l21.13-6q3.87,16.6,17.65,16.61,6.3,0,10.2-3.27a10.63,10.63,0,0,0,3.91-8.59,10.74,10.74,0,0,0-2.74-7.21q-2.73-3.18-12.57-6.73-12.66-4.52-18.87-8.19a29,29,0,0,1-10.24-10.48,29.85,29.85,0,0,1-4-15.52q0-14.84,9.55-24.31t25.28-9.47Q551.4,307.63,558.5,333.27Z" transform="translate(-31 -247.1)"/><path d="M566.88,309.32H635.5V330H613v89.42H588.81V330H566.88Z" transform="translate(-31 -247.1)"/><path d="M721.45,364.31q0,56.76-39.91,56.76-19.85,0-29.92-14.47t-10.08-42.29q0-56.68,39.91-56.68,19.51,0,29.76,14.19T721.45,364.31Zm-25.48,0q0-22.26-3.47-29.63t-11-7.38q-7.49,0-11,7.42T667,364.31q0,21.76,3.43,29.43t11,7.66q7.5,0,11-7.34T696,364.31Z" transform="translate(-31 -247.1)"/><path d="M31,247.1H81.69V434.48H156v43.26H31Z" transform="translate(-31 -247.1)"/><path class="cls-1" d="M43.51,259.61H94.2V447h74.35v43.26h-125Z" transform="translate(-31 -247.1)"/><path class="cls-1" d="M43.48,259.58H94.17V447h74.35v43.25h-125Z" transform="translate(-31 -247.1)"/><path class="cls-1" d="M43.46,259.56H94.15V446.94H168.5V490.2h-125Z" transform="translate(-31 -247.1)"/><path class="cls-1" d="M43.43,259.53H94.12V446.92h74.35v43.25h-125Z" transform="translate(-31 -247.1)"/><path class="cls-1" d="M43.41,259.51H94.1V446.89h74.35v43.26h-125Z" transform="translate(-31 -247.1)"/><path class="cls-1" d="M43.38,259.48H94.07V446.87h74.35v43.25h-125Z" transform="translate(-31 -247.1)"/><path class="cls-1" d="M43.36,259.46H94.05V446.84H168.4V490.1h-125Z" transform="translate(-31 -247.1)"/><path class="cls-1" d="M43.33,259.43H94V446.82h74.35v43.25h-125Z" transform="translate(-31 -247.1)"/><path class="cls-1" d="M43.31,259.41H94V446.79h74.35v43.26h-125Z" transform="translate(-31 -247.1)"/><path class="cls-1" d="M43.28,259.38H94V446.77h74.35V490h-125Z" transform="translate(-31 -247.1)"/><path class="cls-1" d="M43.26,259.36H94V446.74H168.3V490h-125Z" transform="translate(-31 -247.1)"/><path class="cls-1" d="M43.23,259.33H93.92V446.72h74.35V490h-125Z" transform="translate(-31 -247.1)"/><path class="cls-1" d="M43.21,259.31H93.9V446.69h74.35V490h-125Z" transform="translate(-31 -247.1)"/><path class="cls-1" d="M43.18,259.28H93.87V446.67h74.35v43.25h-125Z" transform="translate(-31 -247.1)"/><path class="cls-1" d="M43.16,259.26H93.85V446.64H168.2V489.9h-125Z" transform="translate(-31 -247.1)"/><path class="cls-1" d="M43.13,259.23H93.82V446.62h74.35v43.25h-125Z" transform="translate(-31 -247.1)"/><path class="cls-1" d="M43.11,259.21H93.8V446.59h74.35v43.26h-125Z" transform="translate(-31 -247.1)"/><path class="cls-1" d="M43.08,259.18H93.77V446.57h74.35v43.25h-125Z" transform="translate(-31 -247.1)"/><path class="cls-1" d="M43.06,259.16H93.75V446.54H168.1V489.8h-125Z" transform="translate(-31 -247.1)"/><path class="cls-1" d="M43,259.13H93.72V446.52h74.35v43.25H43Z" transform="translate(-31 -247.1)"/><path class="cls-1" d="M43,259.11H93.7V446.49h74.35v43.26H43Z" transform="translate(-31 -247.1)"/><path class="cls-1" d="M43,259.08H93.67V446.47H168v43.25H43Z" transform="translate(-31 -247.1)"/><path class="cls-1" d="M43,259.06H93.65V446.44H168V489.7H43Z" transform="translate(-31 -247.1)"/><path class="cls-1" d="M42.93,259H93.62V446.42H168v43.25h-125Z" transform="translate(-31 -247.1)"/><path class="cls-1" d="M42.91,259H93.6V446.39H168v43.26h-125Z" transform="translate(-31 -247.1)"/><path class="cls-1" d="M42.88,259H93.57V446.37h74.35v43.25h-125Z" transform="translate(-31 -247.1)"/><path class="cls-1" d="M42.86,259H93.55V446.34H167.9V489.6h-125Z" transform="translate(-31 -247.1)"/><path class="cls-1" d="M42.83,258.93H93.52V446.32h74.35v43.25h-125Z" transform="translate(-31 -247.1)"/><path class="cls-1" d="M42.81,258.91H93.5V446.29h74.35v43.26h-125Z" transform="translate(-31 -247.1)"/><path class="cls-1" d="M42.78,258.88H93.47V446.27h74.35v43.25h-125Z" transform="translate(-31 -247.1)"/><path class="cls-1" d="M42.76,258.86H93.45V446.24H167.8V489.5h-125Z" transform="translate(-31 -247.1)"/><path class="cls-1" d="M42.73,258.83H93.42V446.22h74.35v43.25h-125Z" transform="translate(-31 -247.1)"/><path class="cls-1" d="M42.71,258.81H93.4V446.19h74.35v43.26h-125Z" transform="translate(-31 -247.1)"/><path class="cls-1" d="M42.68,258.78H93.37V446.17h74.35v43.25h-125Z" transform="translate(-31 -247.1)"/><path class="cls-1" d="M42.66,258.76H93.35V446.14H167.7V489.4h-125Z" transform="translate(-31 -247.1)"/><path class="cls-1" d="M42.63,258.73H93.32V446.12h74.35v43.25h-125Z" transform="translate(-31 -247.1)"/><path class="cls-1" d="M42.61,258.71H93.3V446.09h74.34v43.26h-125Z" transform="translate(-31 -247.1)"/><path class="cls-1" d="M42.58,258.68H93.27V446.07h74.35v43.25h-125Z" transform="translate(-31 -247.1)"/><path class="cls-1" d="M42.56,258.66H93.25V446h74.34V489.3h-125Z" transform="translate(-31 -247.1)"/><path class="cls-1" d="M42.53,258.63H93.22V446h74.35v43.25h-125Z" transform="translate(-31 -247.1)"/><path class="cls-1" d="M42.51,258.61H93.2V446h74.34v43.26h-125Z" transform="translate(-31 -247.1)"/><path class="cls-1" d="M42.48,258.58H93.17V446h74.35v43.25h-125Z" transform="translate(-31 -247.1)"/><path class="cls-1" d="M42.46,258.56H93.15V445.94h74.34V489.2h-125Z" transform="translate(-31 -247.1)"/><path class="cls-1" d="M42.43,258.53H93.12V445.92h74.35v43.25h-125Z" transform="translate(-31 -247.1)"/><path class="cls-1" d="M42.41,258.51H93.1V445.89h74.34v43.26h-125Z" transform="translate(-31 -247.1)"/><path class="cls-1" d="M42.38,258.48H93.07V445.87h74.35v43.25h-125Z" transform="translate(-31 -247.1)"/><path class="cls-1" d="M42.36,258.46H93.05V445.84h74.34V489.1h-125Z" transform="translate(-31 -247.1)"/><path class="cls-1" d="M42.33,258.43H93V445.82h74.35v43.25h-125Z" transform="translate(-31 -247.1)"/><path class="cls-1" d="M42.31,258.41H93V445.79h74.34v43.26h-125Z" transform="translate(-31 -247.1)"/><path class="cls-1" d="M42.28,258.38H93V445.77h74.35V489h-125Z" transform="translate(-31 -247.1)"/><path class="cls-1" d="M42.26,258.36H93V445.74h74.34V489h-125Z" transform="translate(-31 -247.1)"/><path class="cls-1" d="M42.23,258.33H92.92V445.72h74.35V489h-125Z" transform="translate(-31 -247.1)"/><path class="cls-1" d="M42.21,258.31H92.9V445.69h74.34V489h-125Z" transform="translate(-31 -247.1)"/><path class="cls-1" d="M42.18,258.28H92.87V445.67h74.35v43.25h-125Z" transform="translate(-31 -247.1)"/><path class="cls-1" d="M42.16,258.26H92.85V445.64h74.34V488.9h-125Z" transform="translate(-31 -247.1)"/><path class="cls-1" d="M42.13,258.23H92.82V445.62h74.35v43.25h-125Z" transform="translate(-31 -247.1)"/><path class="cls-1" d="M42.11,258.21H92.8V445.59h74.34v43.26h-125Z" transform="translate(-31 -247.1)"/><path class="cls-1" d="M42.08,258.18H92.77V445.57h74.35v43.25h-125Z" transform="translate(-31 -247.1)"/><path class="cls-1" d="M42.06,258.16H92.75V445.54h74.34V488.8h-125Z" transform="translate(-31 -247.1)"/><path class="cls-1" d="M42,258.13H92.72V445.52h74.35v43.25H42Z" transform="translate(-31 -247.1)"/><path class="cls-1" d="M42,258.11H92.7V445.49H167v43.26H42Z" transform="translate(-31 -247.1)"/><path class="cls-1" d="M42,258.08H92.67V445.47H167v43.25H42Z" transform="translate(-31 -247.1)"/><path class="cls-1" d="M42,258.06H92.65V445.44H167V488.7H42Z" transform="translate(-31 -247.1)"/><path class="cls-1" d="M41.93,258H92.62V445.42H167v43.25h-125Z" transform="translate(-31 -247.1)"/><path class="cls-1" d="M41.91,258H92.6V445.39h74.34v43.26h-125Z" transform="translate(-31 -247.1)"/><path class="cls-1" d="M41.88,258H92.57V445.37h74.35v43.25h-125Z" transform="translate(-31 -247.1)"/><path class="cls-1" d="M41.86,258H92.55V445.34h74.34V488.6h-125Z" transform="translate(-31 -247.1)"/><path class="cls-1" d="M41.83,257.93H92.52V445.32h74.35v43.25h-125Z" transform="translate(-31 -247.1)"/><path class="cls-1" d="M41.81,257.9H92.5V445.29h74.34v43.26h-125Z" transform="translate(-31 -247.1)"/><path class="cls-1" d="M41.78,257.88H92.47V445.27h74.35v43.25h-125Z" transform="translate(-31 -247.1)"/><path class="cls-1" d="M41.76,257.85H92.45V445.24h74.34V488.5h-125Z" transform="translate(-31 -247.1)"/><path class="cls-1" d="M41.73,257.83H92.42V445.22h74.35v43.25h-125Z" transform="translate(-31 -247.1)"/><path class="cls-1" d="M41.71,257.8H92.4V445.19h74.34v43.26h-125Z" transform="translate(-31 -247.1)"/><path class="cls-1" d="M41.68,257.78H92.37V445.17h74.35v43.25h-125Z" transform="translate(-31 -247.1)"/><path class="cls-1" d="M41.66,257.75H92.35V445.14h74.34V488.4h-125Z" transform="translate(-31 -247.1)"/><path class="cls-1" d="M41.63,257.73H92.32V445.12h74.35v43.25h-125Z" transform="translate(-31 -247.1)"/><path class="cls-1" d="M41.61,257.7H92.3V445.09h74.34v43.26h-125Z" transform="translate(-31 -247.1)"/><path class="cls-1" d="M41.58,257.68H92.27V445.06h74.35v43.26h-125Z" transform="translate(-31 -247.1)"/><path class="cls-1" d="M41.56,257.65H92.25V445h74.34V488.3h-125Z" transform="translate(-31 -247.1)"/><path class="cls-1" d="M41.53,257.63H92.22V445h74.35v43.26h-125Z" transform="translate(-31 -247.1)"/><path class="cls-1" d="M41.51,257.6H92.2V445h74.34v43.26h-125Z" transform="translate(-31 -247.1)"/><path class="cls-1" d="M41.48,257.58H92.17V445h74.35v43.26h-125Z" transform="translate(-31 -247.1)"/><path class="cls-1" d="M41.46,257.55H92.15V444.94h74.34V488.2h-125Z" transform="translate(-31 -247.1)"/><path class="cls-1" d="M41.43,257.53H92.12V444.91h74.35v43.26h-125Z" transform="translate(-31 -247.1)"/><path class="cls-1" d="M41.41,257.5H92.1V444.89h74.34v43.26h-125Z" transform="translate(-31 -247.1)"/><path class="cls-1" d="M41.38,257.48H92.07V444.86h74.35v43.26h-125Z" transform="translate(-31 -247.1)"/><path class="cls-1" d="M41.36,257.45H92.05V444.84h74.34V488.1h-125Z" transform="translate(-31 -247.1)"/><path class="cls-1" d="M41.33,257.43H92V444.81h74.35v43.26h-125Z" transform="translate(-31 -247.1)"/><path class="cls-1" d="M41.31,257.4H92V444.79h74.34v43.26h-125Z" transform="translate(-31 -247.1)"/><path class="cls-1" d="M41.28,257.38H92V444.76h74.35V488h-125Z" transform="translate(-31 -247.1)"/><path class="cls-1" d="M41.26,257.35H92V444.74h74.34V488h-125Z" transform="translate(-31 -247.1)"/><path class="cls-1" d="M41.23,257.33H91.92V444.71h74.35V488h-125Z" transform="translate(-31 -247.1)"/><path class="cls-1" d="M41.21,257.3H91.9V444.69h74.34V488h-125Z" transform="translate(-31 -247.1)"/><path class="cls-1" d="M41.18,257.28H91.87V444.66h74.35v43.26h-125Z" transform="translate(-31 -247.1)"/><path class="cls-1" d="M41.16,257.25H91.85V444.64h74.34V487.9h-125Z" transform="translate(-31 -247.1)"/><path class="cls-1" d="M41.13,257.23H91.82V444.61h74.35v43.26h-125Z" transform="translate(-31 -247.1)"/><path class="cls-1" d="M41.11,257.2H91.8V444.59h74.34v43.26h-125Z" transform="translate(-31 -247.1)"/><path class="cls-1" d="M41.08,257.18H91.77V444.56h74.35v43.26h-125Z" transform="translate(-31 -247.1)"/><path class="cls-1" d="M41.06,257.15H91.75V444.54h74.34V487.8h-125Z" transform="translate(-31 -247.1)"/><path class="cls-1" d="M41,257.13H91.72V444.51h74.35v43.26H41Z" transform="translate(-31 -247.1)"/><path class="cls-1" d="M41,257.1H91.7V444.49H166v43.26H41Z" transform="translate(-31 -247.1)"/><path class="cls-1" d="M41,257.08H91.67V444.46H166v43.26H41Z" transform="translate(-31 -247.1)"/><path class="cls-1" d="M41,257.05H91.65V444.44H166V487.7H41Z" transform="translate(-31 -247.1)"/><path class="cls-1" d="M40.93,257H91.62V444.41H166v43.26h-125Z" transform="translate(-31 -247.1)"/><path class="cls-1" d="M40.91,257H91.6V444.39h74.34v43.26h-125Z" transform="translate(-31 -247.1)"/><path class="cls-1" d="M40.88,257H91.57V444.36h74.35v43.26h-125Z" transform="translate(-31 -247.1)"/><path class="cls-1" d="M40.86,257H91.55V444.34h74.34V487.6h-125Z" transform="translate(-31 -247.1)"/><path class="cls-1" d="M40.83,256.93H91.52V444.31h74.35v43.26h-125Z" transform="translate(-31 -247.1)"/><path class="cls-1" d="M40.81,256.9H91.5V444.29h74.34v43.26h-125Z" transform="translate(-31 -247.1)"/><path class="cls-1" d="M40.78,256.88H91.47V444.26h74.35v43.26h-125Z" transform="translate(-31 -247.1)"/><path class="cls-1" d="M40.76,256.85H91.45V444.24h74.34V487.5h-125Z" transform="translate(-31 -247.1)"/><path class="cls-1" d="M40.73,256.83H91.42V444.21h74.35v43.26h-125Z" transform="translate(-31 -247.1)"/><path class="cls-1" d="M40.71,256.8H91.4V444.19h74.34v43.26h-125Z" transform="translate(-31 -247.1)"/><path class="cls-1" d="M40.68,256.78H91.37V444.16h74.35v43.26h-125Z" transform="translate(-31 -247.1)"/><path class="cls-1" d="M40.66,256.75H91.35V444.14h74.34V487.4h-125Z" transform="translate(-31 -247.1)"/><path class="cls-1" d="M40.63,256.73H91.32V444.11h74.35v43.26h-125Z" transform="translate(-31 -247.1)"/><path class="cls-1" d="M40.61,256.7H91.3V444.09h74.34v43.25h-125Z" transform="translate(-31 -247.1)"/><path class="cls-1" d="M40.58,256.68H91.27V444.06h74.35v43.26h-125Z" transform="translate(-31 -247.1)"/><path class="cls-1" d="M40.56,256.65H91.25V444h74.34v43.25h-125Z" transform="translate(-31 -247.1)"/><path class="cls-1" d="M40.53,256.63H91.22V444h74.35v43.26h-125Z" transform="translate(-31 -247.1)"/><path class="cls-1" d="M40.51,256.6H91.2V444h74.34v43.25h-125Z" transform="translate(-31 -247.1)"/><path class="cls-1" d="M40.48,256.58H91.17V444h74.35v43.26h-125Z" transform="translate(-31 -247.1)"/><path class="cls-1" d="M40.46,256.55H91.15V443.94h74.34v43.25h-125Z" transform="translate(-31 -247.1)"/><path class="cls-1" d="M40.43,256.53H91.12V443.91h74.35v43.26h-125Z" transform="translate(-31 -247.1)"/><path class="cls-1" d="M40.41,256.5H91.1V443.89h74.34v43.25h-125Z" transform="translate(-31 -247.1)"/><path class="cls-1" d="M40.38,256.48H91.07V443.86h74.35v43.26h-125Z" transform="translate(-31 -247.1)"/><path class="cls-1" d="M40.36,256.45H91.05V443.84h74.34v43.25h-125Z" transform="translate(-31 -247.1)"/><path class="cls-1" d="M40.33,256.43H91V443.81h74.35v43.26h-125Z" transform="translate(-31 -247.1)"/><path class="cls-1" d="M40.31,256.4H91V443.79h74.34V487h-125Z" transform="translate(-31 -247.1)"/><path class="cls-1" d="M40.28,256.38H91V443.76h74.35V487h-125Z" transform="translate(-31 -247.1)"/><path class="cls-1" d="M40.26,256.35H91V443.74h74.34V487h-125Z" transform="translate(-31 -247.1)"/><path class="cls-1" d="M40.23,256.33H90.92V443.71h74.35V487h-125Z" transform="translate(-31 -247.1)"/><path class="cls-1" d="M40.21,256.3H90.9V443.69h74.34v43.25h-125Z" transform="translate(-31 -247.1)"/><path class="cls-1" d="M40.18,256.28H90.87V443.66h74.35v43.26h-125Z" transform="translate(-31 -247.1)"/><path class="cls-1" d="M40.16,256.25H90.85V443.64h74.34v43.25h-125Z" transform="translate(-31 -247.1)"/><path class="cls-1" d="M40.13,256.23H90.82V443.61h74.35v43.26h-125Z" transform="translate(-31 -247.1)"/><path class="cls-1" d="M40.11,256.2H90.8V443.59h74.34v43.25h-125Z" transform="translate(-31 -247.1)"/><path class="cls-1" d="M40.08,256.18H90.77V443.56h74.35v43.26h-125Z" transform="translate(-31 -247.1)"/><path class="cls-1" d="M40.06,256.15H90.75V443.54h74.34v43.25h-125Z" transform="translate(-31 -247.1)"/><path class="cls-1" d="M40,256.13H90.72V443.51h74.35v43.26H40Z" transform="translate(-31 -247.1)"/><path class="cls-1" d="M40,256.1H90.7V443.49H165v43.25H40Z" transform="translate(-31 -247.1)"/><path class="cls-1" d="M40,256.08H90.67V443.46H165v43.26H40Z" transform="translate(-31 -247.1)"/><path class="cls-1" d="M40,256.05H90.65V443.44H165v43.25H40Z" transform="translate(-31 -247.1)"/><path class="cls-1" d="M39.93,256H90.62V443.41H165v43.26h-125Z" transform="translate(-31 -247.1)"/><path class="cls-1" d="M39.91,256H90.6V443.39h74.34v43.25h-125Z" transform="translate(-31 -247.1)"/><path class="cls-1" d="M39.88,256H90.57V443.36h74.35v43.26h-125Z" transform="translate(-31 -247.1)"/><path class="cls-1" d="M39.86,256H90.55V443.34h74.34v43.25h-125Z" transform="translate(-31 -247.1)"/><path class="cls-1" d="M39.83,255.93H90.52V443.31h74.35v43.26h-125Z" transform="translate(-31 -247.1)"/><path class="cls-1" d="M39.81,255.9H90.5V443.29h74.34v43.25h-125Z" transform="translate(-31 -247.1)"/><path class="cls-1" d="M39.78,255.88H90.47V443.26h74.35v43.26h-125Z" transform="translate(-31 -247.1)"/><path class="cls-1" d="M39.76,255.85H90.45V443.24h74.34v43.25h-125Z" transform="translate(-31 -247.1)"/><path class="cls-1" d="M39.73,255.83H90.42V443.21h74.35v43.26h-125Z" transform="translate(-31 -247.1)"/><path class="cls-1" d="M39.71,255.8H90.4V443.19h74.34v43.25h-125Z" transform="translate(-31 -247.1)"/><path class="cls-1" d="M39.68,255.78H90.37V443.16h74.35v43.26h-125Z" transform="translate(-31 -247.1)"/><path class="cls-1" d="M39.66,255.75H90.35V443.14h74.34v43.25h-125Z" transform="translate(-31 -247.1)"/><path class="cls-1" d="M39.63,255.73H90.32V443.11h74.35v43.26h-125Z" transform="translate(-31 -247.1)"/><path class="cls-1" d="M39.61,255.7H90.3V443.09h74.34v43.25h-125Z" transform="translate(-31 -247.1)"/><path class="cls-1" d="M39.58,255.68H90.27V443.06h74.35v43.26h-125Z" transform="translate(-31 -247.1)"/><path class="cls-1" d="M39.56,255.65H90.25V443h74.34v43.25h-125Z" transform="translate(-31 -247.1)"/><path class="cls-1" d="M39.53,255.63H90.22V443h74.35v43.26h-125Z" transform="translate(-31 -247.1)"/><path class="cls-1" d="M39.51,255.6H90.2V443h74.34v43.25h-125Z" transform="translate(-31 -247.1)"/><path class="cls-1" d="M39.48,255.58H90.17V443h74.35v43.26h-125Z" transform="translate(-31 -247.1)"/><path class="cls-1" d="M39.46,255.55H90.15V442.94h74.34v43.25h-125Z" transform="translate(-31 -247.1)"/><path class="cls-1" d="M39.43,255.53H90.12V442.91h74.35v43.26h-125Z" transform="translate(-31 -247.1)"/><path class="cls-1" d="M39.41,255.5H90.1V442.89h74.34v43.25h-125Z" transform="translate(-31 -247.1)"/><path class="cls-1" d="M39.38,255.48H90.07V442.86h74.35v43.26h-125Z" transform="translate(-31 -247.1)"/><path class="cls-1" d="M39.36,255.45H90.05V442.84h74.34v43.25h-125Z" transform="translate(-31 -247.1)"/><path class="cls-1" d="M39.33,255.43H90V442.81h74.35v43.26h-125Z" transform="translate(-31 -247.1)"/><path class="cls-1" d="M39.31,255.4H90V442.79h74.34V486h-125Z" transform="translate(-31 -247.1)"/><path class="cls-1" d="M39.28,255.38H90V442.76h74.35V486h-125Z" transform="translate(-31 -247.1)"/><path class="cls-1" d="M39.26,255.35H90V442.74h74.34V486h-125Z" transform="translate(-31 -247.1)"/><path class="cls-1" d="M39.23,255.33H89.92V442.71h74.35V486h-125Z" transform="translate(-31 -247.1)"/><path class="cls-1" d="M39.21,255.3H89.9V442.69h74.34v43.25h-125Z" transform="translate(-31 -247.1)"/><path class="cls-1" d="M39.18,255.28H89.87V442.66h74.35v43.26h-125Z" transform="translate(-31 -247.1)"/><path class="cls-1" d="M39.16,255.25H89.85V442.64h74.34v43.25h-125Z" transform="translate(-31 -247.1)"/><path class="cls-1" d="M39.13,255.23H89.82V442.61h74.35v43.26h-125Z" transform="translate(-31 -247.1)"/><path class="cls-1" d="M39.11,255.2H89.8V442.59h74.34v43.25h-125Z" transform="translate(-31 -247.1)"/><path class="cls-1" d="M39.08,255.18H89.77V442.56h74.35v43.26h-125Z" transform="translate(-31 -247.1)"/><path class="cls-1" d="M39.06,255.15H89.75V442.54h74.34v43.25h-125Z" transform="translate(-31 -247.1)"/><path class="cls-1" d="M39,255.13H89.72V442.51h74.35v43.26H39Z" transform="translate(-31 -247.1)"/><path class="cls-1" d="M39,255.1H89.7V442.49H164v43.25H39Z" transform="translate(-31 -247.1)"/><path class="cls-1" d="M39,255.08H89.67V442.46H164v43.26H39Z" transform="translate(-31 -247.1)"/><path class="cls-1" d="M39,255.05H89.65V442.44H164v43.25H39Z" transform="translate(-31 -247.1)"/><path class="cls-1" d="M38.93,255H89.62V442.41H164v43.26h-125Z" transform="translate(-31 -247.1)"/><path class="cls-1" d="M38.91,255H89.6V442.39h74.34v43.25h-125Z" transform="translate(-31 -247.1)"/><path class="cls-1" d="M38.88,255H89.57V442.36h74.35v43.26h-125Z" transform="translate(-31 -247.1)"/><path class="cls-1" d="M38.86,255H89.55V442.34h74.34v43.25h-125Z" transform="translate(-31 -247.1)"/><path class="cls-1" d="M38.83,254.93H89.52V442.31h74.35v43.26h-125Z" transform="translate(-31 -247.1)"/><path class="cls-1" d="M38.81,254.9H89.5V442.29h74.34v43.25h-125Z" transform="translate(-31 -247.1)"/><path class="cls-1" d="M38.78,254.88H89.47V442.26h74.35v43.26h-125Z" transform="translate(-31 -247.1)"/><path class="cls-1" d="M38.76,254.85H89.45V442.24h74.34v43.25h-125Z" transform="translate(-31 -247.1)"/><path class="cls-1" d="M38.73,254.83H89.42V442.21h74.35v43.26h-125Z" transform="translate(-31 -247.1)"/><path class="cls-1" d="M38.71,254.8H89.4V442.19h74.34v43.25h-125Z" transform="translate(-31 -247.1)"/><path class="cls-1" d="M38.68,254.78H89.37V442.16h74.35v43.26h-125Z" transform="translate(-31 -247.1)"/><path class="cls-1" d="M38.66,254.75H89.35V442.14h74.34v43.25h-125Z" transform="translate(-31 -247.1)"/><path class="cls-1" d="M38.63,254.73H89.32V442.11h74.35v43.26h-125Z" transform="translate(-31 -247.1)"/><path class="cls-1" d="M38.61,254.7H89.3V442.09h74.34v43.25h-125Z" transform="translate(-31 -247.1)"/><path class="cls-1" d="M38.58,254.68H89.27V442.06h74.35v43.26h-125Z" transform="translate(-31 -247.1)"/><path class="cls-1" d="M38.56,254.65H89.25V442h74.34v43.25h-125Z" transform="translate(-31 -247.1)"/><path class="cls-1" d="M38.53,254.63H89.22V442h74.35v43.26h-125Z" transform="translate(-31 -247.1)"/><path class="cls-1" d="M38.51,254.6H89.2V442h74.34v43.25h-125Z" transform="translate(-31 -247.1)"/><path class="cls-1" d="M38.48,254.58H89.17V442h74.35v43.26h-125Z" transform="translate(-31 -247.1)"/><path class="cls-1" d="M38.46,254.55H89.15V441.94h74.34v43.25h-125Z" transform="translate(-31 -247.1)"/><path class="cls-1" d="M38.43,254.53H89.12V441.91h74.35v43.26h-125Z" transform="translate(-31 -247.1)"/><path class="cls-1" d="M38.41,254.5H89.1V441.89h74.34v43.25h-125Z" transform="translate(-31 -247.1)"/><path class="cls-1" d="M38.38,254.48H89.07V441.86h74.35v43.26h-125Z" transform="translate(-31 -247.1)"/><path class="cls-1" d="M38.36,254.45H89.05V441.84h74.34v43.25h-125Z" transform="translate(-31 -247.1)"/><path class="cls-1" d="M38.33,254.43H89V441.81h74.35v43.26h-125Z" transform="translate(-31 -247.1)"/><path class="cls-1" d="M38.31,254.4H89V441.79h74.34V485h-125Z" transform="translate(-31 -247.1)"/><path class="cls-1" d="M38.28,254.38H89V441.76h74.35V485h-125Z" transform="translate(-31 -247.1)"/><path class="cls-1" d="M38.26,254.35H89V441.74h74.34V485h-125Z" transform="translate(-31 -247.1)"/><path class="cls-1" d="M38.23,254.33H88.92V441.71h74.35V485h-125Z" transform="translate(-31 -247.1)"/><path class="cls-1" d="M38.21,254.3H88.9V441.69h74.34v43.25h-125Z" transform="translate(-31 -247.1)"/><path class="cls-1" d="M38.18,254.28H88.87V441.66h74.35v43.26h-125Z" transform="translate(-31 -247.1)"/><path class="cls-1" d="M38.16,254.25H88.85V441.64h74.34v43.25h-125Z" transform="translate(-31 -247.1)"/><path class="cls-1" d="M38.13,254.23H88.82V441.61h74.35v43.26h-125Z" transform="translate(-31 -247.1)"/><path class="cls-1" d="M38.11,254.2H88.8V441.59h74.34v43.25h-125Z" transform="translate(-31 -247.1)"/><path class="cls-1" d="M38.08,254.18H88.77V441.56h74.35v43.26h-125Z" transform="translate(-31 -247.1)"/><path class="cls-1" d="M38.06,254.15H88.75V441.54h74.34v43.25h-125Z" transform="translate(-31 -247.1)"/><path class="cls-1" d="M38,254.13H88.72V441.51h74.35v43.26H38Z" transform="translate(-31 -247.1)"/><path class="cls-1" d="M38,254.1H88.7V441.49H163v43.25H38Z" transform="translate(-31 -247.1)"/><path class="cls-1" d="M38,254.08H88.67V441.46H163v43.26H38Z" transform="translate(-31 -247.1)"/><path class="cls-1" d="M38,254.05H88.65V441.44H163v43.25H38Z" transform="translate(-31 -247.1)"/><path class="cls-1" d="M37.93,254H88.62V441.41H163v43.26h-125Z" transform="translate(-31 -247.1)"/><path class="cls-1" d="M37.91,254H88.6V441.39h74.34v43.25h-125Z" transform="translate(-31 -247.1)"/><path class="cls-1" d="M37.88,254H88.57V441.36h74.35v43.26h-125Z" transform="translate(-31 -247.1)"/><path class="cls-1" d="M37.86,254H88.55V441.34h74.34v43.25h-125Z" transform="translate(-31 -247.1)"/><path class="cls-1" d="M37.83,253.93H88.52V441.31h74.35v43.26h-125Z" transform="translate(-31 -247.1)"/><path class="cls-1" d="M37.81,253.9H88.5V441.29h74.34v43.25h-125Z" transform="translate(-31 -247.1)"/><path class="cls-1" d="M37.78,253.88H88.47V441.26h74.35v43.26h-125Z" transform="translate(-31 -247.1)"/><path class="cls-1" d="M37.76,253.85H88.45V441.24h74.34v43.25h-125Z" transform="translate(-31 -247.1)"/><path class="cls-1" d="M37.73,253.83H88.42V441.21h74.35v43.26h-125Z" transform="translate(-31 -247.1)"/><path class="cls-1" d="M37.71,253.8H88.4V441.19h74.34v43.25h-125Z" transform="translate(-31 -247.1)"/><path class="cls-1" d="M37.68,253.78H88.37V441.16h74.35v43.26h-125Z" transform="translate(-31 -247.1)"/><path class="cls-1" d="M37.66,253.75H88.35V441.14h74.34v43.25h-125Z" transform="translate(-31 -247.1)"/><path class="cls-1" d="M37.63,253.73H88.32V441.11h74.35v43.26h-125Z" transform="translate(-31 -247.1)"/><path class="cls-1" d="M37.61,253.7H88.3V441.09h74.34v43.25h-125Z" transform="translate(-31 -247.1)"/><path class="cls-1" d="M37.58,253.68H88.27V441.06h74.35v43.26h-125Z" transform="translate(-31 -247.1)"/><path class="cls-1" d="M37.55,253.65h50.7V441h74.34v43.25h-125Z" transform="translate(-31 -247.1)"/><path class="cls-1" d="M37.53,253.63H88.22V441h74.35v43.26h-125Z" transform="translate(-31 -247.1)"/><path class="cls-1" d="M37.5,253.6H88.2V441h74.34v43.25H37.5Z" transform="translate(-31 -247.1)"/><path class="cls-1" d="M37.48,253.58H88.17V441h74.35v43.26h-125Z" transform="translate(-31 -247.1)"/><path class="cls-1" d="M37.45,253.55h50.7V440.94h74.34v43.25h-125Z" transform="translate(-31 -247.1)"/><path class="cls-1" d="M37.43,253.53H88.12V440.91h74.35v43.26h-125Z" transform="translate(-31 -247.1)"/><path class="cls-1" d="M37.4,253.5H88.1V440.89h74.34v43.25H37.4Z" transform="translate(-31 -247.1)"/><path class="cls-1" d="M37.38,253.48H88.07V440.86h74.35v43.26h-125Z" transform="translate(-31 -247.1)"/><path class="cls-1" d="M37.35,253.45h50.7V440.84h74.34v43.25h-125Z" transform="translate(-31 -247.1)"/><path class="cls-1" d="M37.33,253.43H88V440.81h74.35v43.26h-125Z" transform="translate(-31 -247.1)"/><path class="cls-1" d="M37.3,253.4H88V440.79h74.34V484H37.3Z" transform="translate(-31 -247.1)"/><path class="cls-1" d="M37.28,253.38H88V440.76h74.35V484h-125Z" transform="translate(-31 -247.1)"/><path class="cls-1" d="M37.25,253.35H88V440.74h74.34V484h-125Z" transform="translate(-31 -247.1)"/><path class="cls-1" d="M37.23,253.33H87.92V440.71h74.35V484h-125Z" transform="translate(-31 -247.1)"/><path class="cls-1" d="M37.2,253.3H87.9V440.69h74.34v43.25H37.2Z" transform="translate(-31 -247.1)"/><path class="cls-1" d="M37.18,253.28H87.87V440.66h74.35v43.26h-125Z" transform="translate(-31 -247.1)"/><path class="cls-1" d="M37.15,253.25h50.7V440.64h74.34v43.25h-125Z" transform="translate(-31 -247.1)"/><path class="cls-1" d="M37.13,253.23H87.82V440.61h74.35v43.26h-125Z" transform="translate(-31 -247.1)"/><path class="cls-1" d="M37.1,253.2H87.79V440.59h74.35v43.25H37.1Z" transform="translate(-31 -247.1)"/><path class="cls-1" d="M37.08,253.18H87.77V440.56h74.35v43.26h-125Z" transform="translate(-31 -247.1)"/><path class="cls-1" d="M37.05,253.15H87.74V440.54h74.35v43.25h-125Z" transform="translate(-31 -247.1)"/><path class="cls-1" d="M37,253.13H87.72V440.51h74.35v43.26H37Z" transform="translate(-31 -247.1)"/><path class="cls-1" d="M37,253.1H87.69V440.49H162v43.25H37Z" transform="translate(-31 -247.1)"/><path class="cls-1" d="M37,253.08H87.67V440.46H162v43.26H37Z" transform="translate(-31 -247.1)"/><path class="cls-1" d="M37,253.05H87.64V440.44H162v43.25H37Z" transform="translate(-31 -247.1)"/><path class="cls-1" d="M36.93,253H87.62V440.41H162v43.26h-125Z" transform="translate(-31 -247.1)"/><path class="cls-1" d="M36.9,253H87.59V440.39h74.35v43.25H36.9Z" transform="translate(-31 -247.1)"/><path class="cls-1" d="M36.88,253H87.57V440.36h74.35v43.26h-125Z" transform="translate(-31 -247.1)"/><path class="cls-1" d="M36.85,253H87.54V440.34h74.35v43.25h-125Z" transform="translate(-31 -247.1)"/><path class="cls-1" d="M36.83,252.93H87.52V440.31h74.35v43.26h-125Z" transform="translate(-31 -247.1)"/><path class="cls-1" d="M36.8,252.9H87.49V440.29h74.35v43.25H36.8Z" transform="translate(-31 -247.1)"/><path class="cls-1" d="M36.78,252.88H87.47V440.26h74.35v43.26h-125Z" transform="translate(-31 -247.1)"/><path class="cls-1" d="M36.75,252.85H87.44V440.24h74.35v43.25h-125Z" transform="translate(-31 -247.1)"/><path class="cls-1" d="M36.73,252.83H87.42V440.21h74.35v43.26h-125Z" transform="translate(-31 -247.1)"/><path class="cls-1" d="M36.7,252.8H87.39V440.19h74.35v43.25H36.7Z" transform="translate(-31 -247.1)"/><path class="cls-1" d="M36.68,252.78H87.37V440.16h74.35v43.26h-125Z" transform="translate(-31 -247.1)"/><path class="cls-1" d="M36.65,252.75H87.34V440.14h74.35v43.25h-125Z" transform="translate(-31 -247.1)"/><path class="cls-1" d="M36.63,252.73H87.32V440.11h74.35v43.26h-125Z" transform="translate(-31 -247.1)"/><path class="cls-1" d="M36.6,252.7H87.29V440.09h74.35v43.25H36.6Z" transform="translate(-31 -247.1)"/><path class="cls-1" d="M36.58,252.68H87.27V440.06h74.35v43.26h-125Z" transform="translate(-31 -247.1)"/><path class="cls-1" d="M36.55,252.65H87.24V440h74.35v43.25h-125Z" transform="translate(-31 -247.1)"/><path class="cls-1" d="M36.53,252.63H87.22V440h74.35v43.26h-125Z" transform="translate(-31 -247.1)"/><path class="cls-1" d="M36.5,252.6H87.19V440h74.35v43.25H36.5Z" transform="translate(-31 -247.1)"/><path class="cls-1" d="M36.48,252.58H87.17V440h74.35v43.26h-125Z" transform="translate(-31 -247.1)"/><path class="cls-1" d="M36.45,252.55H87.14V439.94h74.35v43.25h-125Z" transform="translate(-31 -247.1)"/><path class="cls-1" d="M36.43,252.53H87.12V439.91h74.35v43.26h-125Z" transform="translate(-31 -247.1)"/><path class="cls-1" d="M36.4,252.5H87.09V439.89h74.35v43.25H36.4Z" transform="translate(-31 -247.1)"/><path class="cls-1" d="M36.38,252.48H87.07V439.86h74.35v43.26h-125Z" transform="translate(-31 -247.1)"/><path class="cls-1" d="M36.35,252.45H87V439.84h74.35v43.25h-125Z" transform="translate(-31 -247.1)"/><path class="cls-1" d="M36.33,252.43H87V439.81h74.35v43.26h-125Z" transform="translate(-31 -247.1)"/><path class="cls-1" d="M36.3,252.4H87V439.79h74.35V483H36.3Z" transform="translate(-31 -247.1)"/><path class="cls-1" d="M36.28,252.38H87V439.76h74.35V483h-125Z" transform="translate(-31 -247.1)"/><path class="cls-1" d="M36.25,252.35H86.94V439.74h74.35V483h-125Z" transform="translate(-31 -247.1)"/><path class="cls-1" d="M36.23,252.33H86.92V439.71h74.35V483h-125Z" transform="translate(-31 -247.1)"/><path class="cls-1" d="M36.2,252.3H86.89V439.69h74.35v43.25H36.2Z" transform="translate(-31 -247.1)"/><path class="cls-1" d="M36.18,252.28H86.87V439.66h74.35v43.26h-125Z" transform="translate(-31 -247.1)"/><path class="cls-1" d="M36.15,252.25H86.84V439.64h74.35v43.25h-125Z" transform="translate(-31 -247.1)"/><path class="cls-1" d="M36.13,252.23H86.82V439.61h74.35v43.26h-125Z" transform="translate(-31 -247.1)"/><path class="cls-1" d="M36.1,252.2H86.79V439.59h74.35v43.25H36.1Z" transform="translate(-31 -247.1)"/><path class="cls-1" d="M36.08,252.18H86.77V439.56h74.35v43.26h-125Z" transform="translate(-31 -247.1)"/><path class="cls-1" d="M36.05,252.15H86.74V439.54h74.35v43.25h-125Z" transform="translate(-31 -247.1)"/><path class="cls-1" d="M36,252.13H86.72V439.51h74.34v43.26H36Z" transform="translate(-31 -247.1)"/><path class="cls-1" d="M36,252.1H86.69V439.49H161v43.25H36Z" transform="translate(-31 -247.1)"/><path class="cls-1" d="M36,252.08H86.67V439.46H161v43.26H36Z" transform="translate(-31 -247.1)"/><path class="cls-1" d="M36,252.05H86.64V439.44H161v43.25H36Z" transform="translate(-31 -247.1)"/><path class="cls-1" d="M35.93,252H86.62V439.41H161v43.26h-125Z" transform="translate(-31 -247.1)"/><path class="cls-1" d="M35.9,252H86.59V439.39h74.35v43.25H35.9Z" transform="translate(-31 -247.1)"/><path class="cls-1" d="M35.88,252H86.57V439.36h74.34v43.26h-125Z" transform="translate(-31 -247.1)"/><path class="cls-1" d="M35.85,252H86.54V439.34h74.35v43.25h-125Z" transform="translate(-31 -247.1)"/><path class="cls-1" d="M35.83,251.93H86.52V439.31h74.34v43.26h-125Z" transform="translate(-31 -247.1)"/><path class="cls-1" d="M35.8,251.9H86.49V439.29h74.35v43.25H35.8Z" transform="translate(-31 -247.1)"/><path class="cls-1" d="M35.78,251.88H86.47V439.26h74.34v43.26h-125Z" transform="translate(-31 -247.1)"/><path class="cls-1" d="M35.75,251.85H86.44V439.24h74.35v43.25h-125Z" transform="translate(-31 -247.1)"/><path class="cls-1" d="M35.73,251.83H86.42V439.21h74.34v43.26h-125Z" transform="translate(-31 -247.1)"/><path class="cls-1" d="M35.7,251.8H86.39V439.19h74.35v43.25H35.7Z" transform="translate(-31 -247.1)"/><path class="cls-1" d="M35.68,251.78H86.37V439.16h74.34v43.26h-125Z" transform="translate(-31 -247.1)"/><path class="cls-1" d="M35.65,251.75H86.34V439.14h74.35v43.25h-125Z" transform="translate(-31 -247.1)"/><path class="cls-1" d="M35.63,251.73H86.32V439.11h74.34v43.26h-125Z" transform="translate(-31 -247.1)"/><path class="cls-1" d="M35.6,251.7H86.29V439.09h74.35v43.25H35.6Z" transform="translate(-31 -247.1)"/><path class="cls-1" d="M35.58,251.68H86.27V439.06h74.34v43.26h-125Z" transform="translate(-31 -247.1)"/><path class="cls-1" d="M35.55,251.65H86.24V439h74.35v43.25h-125Z" transform="translate(-31 -247.1)"/><path class="cls-1" d="M35.53,251.63H86.22V439h74.34v43.26h-125Z" transform="translate(-31 -247.1)"/><path class="cls-1" d="M35.5,251.6H86.19V439h74.35v43.25H35.5Z" transform="translate(-31 -247.1)"/><path class="cls-1" d="M35.48,251.58H86.17V439h74.34v43.26h-125Z" transform="translate(-31 -247.1)"/><path class="cls-1" d="M35.45,251.55H86.14V438.94h74.35v43.25h-125Z" transform="translate(-31 -247.1)"/><path class="cls-1" d="M35.43,251.53H86.12V438.91h74.34v43.26h-125Z" transform="translate(-31 -247.1)"/><path class="cls-1" d="M35.4,251.5H86.09V438.89h74.35v43.25H35.4Z" transform="translate(-31 -247.1)"/><path class="cls-1" d="M35.38,251.48H86.07V438.86h74.34v43.26h-125Z" transform="translate(-31 -247.1)"/><path class="cls-1" d="M35.35,251.45H86V438.84h74.35v43.25h-125Z" transform="translate(-31 -247.1)"/><path class="cls-1" d="M35.33,251.42H86V438.81h74.34v43.26h-125Z" transform="translate(-31 -247.1)"/><path class="cls-1" d="M35.3,251.4H86V438.79h74.35V482H35.3Z" transform="translate(-31 -247.1)"/><path class="cls-1" d="M35.28,251.37H86V438.76h74.34V482h-125Z" transform="translate(-31 -247.1)"/><path class="cls-1" d="M35.25,251.35H85.94V438.74h74.35V482h-125Z" transform="translate(-31 -247.1)"/><path class="cls-1" d="M35.23,251.32H85.92V438.71h74.34V482h-125Z" transform="translate(-31 -247.1)"/><path class="cls-1" d="M35.2,251.3H85.89V438.69h74.35v43.25H35.2Z" transform="translate(-31 -247.1)"/><path class="cls-1" d="M35.18,251.27H85.87V438.66h74.34v43.26h-125Z" transform="translate(-31 -247.1)"/><path class="cls-1" d="M35.15,251.25H85.84V438.64h74.35v43.25h-125Z" transform="translate(-31 -247.1)"/><path class="cls-1" d="M35.13,251.22H85.82V438.61h74.34v43.26h-125Z" transform="translate(-31 -247.1)"/><path class="cls-1" d="M35.1,251.2H85.79V438.59h74.35v43.25H35.1Z" transform="translate(-31 -247.1)"/><path class="cls-1" d="M35.08,251.17H85.77V438.56h74.34v43.26h-125Z" transform="translate(-31 -247.1)"/><path class="cls-1" d="M35.05,251.15H85.74V438.53h74.35v43.26h-125Z" transform="translate(-31 -247.1)"/><path class="cls-1" d="M35,251.12H85.72V438.51h74.34v43.26H35Z" transform="translate(-31 -247.1)"/><path class="cls-1" d="M35,251.1H85.69V438.48H160v43.26H35Z" transform="translate(-31 -247.1)"/><path class="cls-1" d="M35,251.07H85.67V438.46H160v43.26H35Z" transform="translate(-31 -247.1)"/><path class="cls-1" d="M35,251.05H85.64V438.43H160v43.26H35Z" transform="translate(-31 -247.1)"/><path class="cls-1" d="M34.93,251H85.62V438.41H160v43.26h-125Z" transform="translate(-31 -247.1)"/><path class="cls-1" d="M34.9,251H85.59V438.38h74.35v43.26H34.9Z" transform="translate(-31 -247.1)"/><path class="cls-1" d="M34.88,251H85.57V438.36h74.34v43.26h-125Z" transform="translate(-31 -247.1)"/><path class="cls-1" d="M34.85,251H85.54V438.33h74.35v43.26h-125Z" transform="translate(-31 -247.1)"/><path class="cls-1" d="M34.83,250.92H85.52V438.31h74.34v43.26h-125Z" transform="translate(-31 -247.1)"/><path class="cls-1" d="M34.8,250.9H85.49V438.28h74.35v43.26H34.8Z" transform="translate(-31 -247.1)"/><path class="cls-1" d="M34.78,250.87H85.47V438.26h74.34v43.26h-125Z" transform="translate(-31 -247.1)"/><path class="cls-1" d="M34.75,250.85H85.44V438.23h74.35v43.26h-125Z" transform="translate(-31 -247.1)"/><path class="cls-1" d="M34.73,250.82H85.42V438.21h74.34v43.26h-125Z" transform="translate(-31 -247.1)"/><path class="cls-1" d="M34.7,250.8H85.39V438.18h74.35v43.26H34.7Z" transform="translate(-31 -247.1)"/><path class="cls-1" d="M34.68,250.77H85.37V438.16h74.34v43.26h-125Z" transform="translate(-31 -247.1)"/><path class="cls-1" d="M34.65,250.75H85.34V438.13h74.35v43.26h-125Z" transform="translate(-31 -247.1)"/><path class="cls-1" d="M34.63,250.72H85.32V438.11h74.34v43.26h-125Z" transform="translate(-31 -247.1)"/><path class="cls-1" d="M34.6,250.7H85.29V438.08h74.35v43.26H34.6Z" transform="translate(-31 -247.1)"/><path class="cls-1" d="M34.58,250.67H85.27V438.06h74.34v43.26h-125Z" transform="translate(-31 -247.1)"/><path class="cls-1" d="M34.55,250.65H85.24V438h74.35v43.26h-125Z" transform="translate(-31 -247.1)"/><path class="cls-1" d="M34.53,250.62H85.22V438h74.34v43.26h-125Z" transform="translate(-31 -247.1)"/><path class="cls-1" d="M34.5,250.6H85.19V438h74.35v43.26H34.5Z" transform="translate(-31 -247.1)"/><path class="cls-1" d="M34.48,250.57H85.17V438h74.34v43.26h-125Z" transform="translate(-31 -247.1)"/><path class="cls-1" d="M34.45,250.55H85.14V437.93h74.35v43.26h-125Z" transform="translate(-31 -247.1)"/><path class="cls-1" d="M34.43,250.52H85.12V437.91h74.34v43.26h-125Z" transform="translate(-31 -247.1)"/><path class="cls-1" d="M34.4,250.5H85.09V437.88h74.35v43.26H34.4Z" transform="translate(-31 -247.1)"/><path class="cls-1" d="M34.38,250.47H85.07V437.86h74.34v43.26h-125Z" transform="translate(-31 -247.1)"/><path class="cls-1" d="M34.35,250.45H85V437.83h74.35v43.26h-125Z" transform="translate(-31 -247.1)"/><path class="cls-1" d="M34.33,250.42H85V437.81h74.34v43.26h-125Z" transform="translate(-31 -247.1)"/><path class="cls-1" d="M34.3,250.4H85V437.78h74.35V481H34.3Z" transform="translate(-31 -247.1)"/><path class="cls-1" d="M34.28,250.37H85V437.76h74.34V481h-125Z" transform="translate(-31 -247.1)"/><path class="cls-1" d="M34.25,250.35H84.94V437.73h74.35V481h-125Z" transform="translate(-31 -247.1)"/><path class="cls-1" d="M34.23,250.32H84.92V437.71h74.34V481h-125Z" transform="translate(-31 -247.1)"/><path class="cls-1" d="M34.2,250.3H84.89V437.68h74.35v43.26H34.2Z" transform="translate(-31 -247.1)"/><path class="cls-1" d="M34.18,250.27H84.87V437.66h74.34v43.26h-125Z" transform="translate(-31 -247.1)"/><path class="cls-1" d="M34.15,250.25H84.84V437.63h74.35v43.26h-125Z" transform="translate(-31 -247.1)"/><path class="cls-1" d="M34.13,250.22H84.82V437.61h74.34v43.26h-125Z" transform="translate(-31 -247.1)"/><path class="cls-1" d="M34.1,250.2H84.79V437.58h74.35v43.26H34.1Z" transform="translate(-31 -247.1)"/><path class="cls-1" d="M34.08,250.17H84.77V437.56h74.34v43.25h-125Z" transform="translate(-31 -247.1)"/><path class="cls-1" d="M34.05,250.15H84.74V437.53h74.35v43.26h-125Z" transform="translate(-31 -247.1)"/><path class="cls-1" d="M34,250.12H84.72V437.51h74.34v43.25H34Z" transform="translate(-31 -247.1)"/><path class="cls-1" d="M34,250.1H84.69V437.48H159v43.26H34Z" transform="translate(-31 -247.1)"/><path class="cls-1" d="M34,250.07H84.67V437.46H159v43.25H34Z" transform="translate(-31 -247.1)"/><path class="cls-1" d="M34,250.05H84.64V437.43H159v43.26H34Z" transform="translate(-31 -247.1)"/><path class="cls-1" d="M33.93,250H84.62V437.41H159v43.25h-125Z" transform="translate(-31 -247.1)"/><path class="cls-1" d="M33.9,250H84.59V437.38h74.35v43.26H33.9Z" transform="translate(-31 -247.1)"/><path class="cls-1" d="M33.88,250H84.57V437.36h74.34v43.25h-125Z" transform="translate(-31 -247.1)"/><path class="cls-1" d="M33.85,250H84.54V437.33h74.35v43.26h-125Z" transform="translate(-31 -247.1)"/><path class="cls-1" d="M33.83,249.92H84.52V437.31h74.34v43.25h-125Z" transform="translate(-31 -247.1)"/><path class="cls-1" d="M33.8,249.9H84.49V437.28h74.35v43.26H33.8Z" transform="translate(-31 -247.1)"/><path class="cls-1" d="M33.78,249.87H84.47V437.26h74.34v43.25h-125Z" transform="translate(-31 -247.1)"/><path class="cls-1" d="M33.75,249.85H84.44V437.23h74.35v43.26h-125Z" transform="translate(-31 -247.1)"/><path class="cls-1" d="M33.73,249.82H84.42V437.21h74.34v43.25h-125Z" transform="translate(-31 -247.1)"/><path class="cls-1" d="M33.7,249.8H84.39V437.18h74.35v43.26H33.7Z" transform="translate(-31 -247.1)"/><path class="cls-1" d="M33.68,249.77H84.37V437.16h74.34v43.25h-125Z" transform="translate(-31 -247.1)"/><path class="cls-1" d="M33.65,249.75H84.34V437.13h74.35v43.26h-125Z" transform="translate(-31 -247.1)"/><path class="cls-1" d="M33.63,249.72H84.32V437.11h74.34v43.25h-125Z" transform="translate(-31 -247.1)"/><path class="cls-1" d="M33.6,249.7H84.29V437.08h74.35v43.26H33.6Z" transform="translate(-31 -247.1)"/><path class="cls-1" d="M33.58,249.67H84.27V437.06h74.34v43.25h-125Z" transform="translate(-31 -247.1)"/><path class="cls-1" d="M33.55,249.65H84.24V437h74.35v43.26h-125Z" transform="translate(-31 -247.1)"/><path class="cls-1" d="M33.53,249.62H84.22V437h74.34v43.25h-125Z" transform="translate(-31 -247.1)"/><path class="cls-1" d="M33.5,249.6H84.19V437h74.35v43.26H33.5Z" transform="translate(-31 -247.1)"/><path class="cls-1" d="M33.48,249.57H84.17V437h74.34v43.25h-125Z" transform="translate(-31 -247.1)"/><path class="cls-1" d="M33.45,249.55H84.14V436.93h74.35v43.26h-125Z" transform="translate(-31 -247.1)"/><path class="cls-1" d="M33.43,249.52H84.12V436.91h74.34v43.25h-125Z" transform="translate(-31 -247.1)"/><path class="cls-1" d="M33.4,249.5H84.09V436.88h74.35v43.26H33.4Z" transform="translate(-31 -247.1)"/><path class="cls-1" d="M33.38,249.47H84.07V436.86h74.34v43.25h-125Z" transform="translate(-31 -247.1)"/><path class="cls-1" d="M33.35,249.45H84V436.83h74.35v43.26h-125Z" transform="translate(-31 -247.1)"/><path class="cls-1" d="M33.33,249.42H84V436.81h74.34v43.25h-125Z" transform="translate(-31 -247.1)"/><path class="cls-1" d="M33.3,249.4H84V436.78h74.35V480H33.3Z" transform="translate(-31 -247.1)"/><path class="cls-1" d="M33.28,249.37H84V436.76h74.34V480h-125Z" transform="translate(-31 -247.1)"/><path class="cls-1" d="M33.25,249.35H83.94V436.73h74.35V480h-125Z" transform="translate(-31 -247.1)"/><path class="cls-1" d="M33.23,249.32H83.92V436.71h74.34V480h-125Z" transform="translate(-31 -247.1)"/><path class="cls-1" d="M33.2,249.3H83.89V436.68h74.35v43.26H33.2Z" transform="translate(-31 -247.1)"/><path class="cls-1" d="M33.18,249.27H83.87V436.66h74.34v43.25h-125Z" transform="translate(-31 -247.1)"/><path class="cls-1" d="M33.15,249.25H83.84V436.63h74.35v43.26h-125Z" transform="translate(-31 -247.1)"/><path class="cls-1" d="M33.13,249.22H83.82V436.61h74.34v43.25h-125Z" transform="translate(-31 -247.1)"/><path class="cls-1" d="M33.1,249.2H83.79V436.58h74.35v43.26H33.1Z" transform="translate(-31 -247.1)"/><path class="cls-1" d="M33.08,249.17H83.77V436.56h74.34v43.25h-125Z" transform="translate(-31 -247.1)"/><path class="cls-1" d="M33.05,249.15H83.74V436.53h74.35v43.26h-125Z" transform="translate(-31 -247.1)"/><path class="cls-1" d="M33,249.12H83.72V436.51h74.34v43.25H33Z" transform="translate(-31 -247.1)"/><path class="cls-1" d="M33,249.1H83.69V436.48H158v43.26H33Z" transform="translate(-31 -247.1)"/><path class="cls-1" d="M33,249.07H83.67V436.46H158v43.25H33Z" transform="translate(-31 -247.1)"/><path class="cls-1" d="M33,249.05H83.64V436.43H158v43.26H33Z" transform="translate(-31 -247.1)"/><path class="cls-1" d="M32.93,249H83.62V436.41H158v43.25h-125Z" transform="translate(-31 -247.1)"/><path class="cls-1" d="M32.9,249H83.59V436.38h74.35v43.26H32.9Z" transform="translate(-31 -247.1)"/><path class="cls-1" d="M32.88,249H83.57V436.36h74.34v43.25h-125Z" transform="translate(-31 -247.1)"/><path class="cls-1" d="M32.85,249H83.54V436.33h74.35v43.26h-125Z" transform="translate(-31 -247.1)"/><path class="cls-1" d="M32.83,248.92H83.52V436.31h74.34v43.25h-125Z" transform="translate(-31 -247.1)"/><path class="cls-1" d="M32.8,248.9H83.49V436.28h74.35v43.26H32.8Z" transform="translate(-31 -247.1)"/><path class="cls-1" d="M32.78,248.87H83.47V436.26h74.34v43.25h-125Z" transform="translate(-31 -247.1)"/><path class="cls-1" d="M32.75,248.85H83.44V436.23h74.35v43.26h-125Z" transform="translate(-31 -247.1)"/><path class="cls-1" d="M32.73,248.82H83.42V436.21h74.34v43.25h-125Z" transform="translate(-31 -247.1)"/><path class="cls-1" d="M32.7,248.8H83.39V436.18h74.35v43.26H32.7Z" transform="translate(-31 -247.1)"/><path class="cls-1" d="M32.68,248.77H83.37V436.16h74.34v43.25h-125Z" transform="translate(-31 -247.1)"/><path class="cls-1" d="M32.65,248.75H83.34V436.13h74.35v43.26h-125Z" transform="translate(-31 -247.1)"/><path class="cls-1" d="M32.63,248.72H83.32V436.11h74.34v43.25h-125Z" transform="translate(-31 -247.1)"/><path class="cls-1" d="M32.6,248.7H83.29V436.08h74.35v43.26H32.6Z" transform="translate(-31 -247.1)"/><path class="cls-1" d="M32.58,248.67H83.27V436.06h74.34v43.25h-125Z" transform="translate(-31 -247.1)"/><path class="cls-1" d="M32.55,248.65H83.24V436h74.35v43.26h-125Z" transform="translate(-31 -247.1)"/><path class="cls-1" d="M32.53,248.62H83.22V436h74.34v43.25h-125Z" transform="translate(-31 -247.1)"/><path class="cls-1" d="M32.5,248.6H83.19V436h74.35v43.26H32.5Z" transform="translate(-31 -247.1)"/><path class="cls-1" d="M32.48,248.57H83.17V436h74.34v43.25h-125Z" transform="translate(-31 -247.1)"/><path class="cls-1" d="M32.45,248.55H83.14V435.93h74.35v43.26h-125Z" transform="translate(-31 -247.1)"/><path class="cls-1" d="M32.43,248.52H83.12V435.91h74.34v43.25h-125Z" transform="translate(-31 -247.1)"/><path class="cls-1" d="M32.4,248.5H83.09V435.88h74.35v43.26H32.4Z" transform="translate(-31 -247.1)"/><path class="cls-1" d="M32.38,248.47H83.07V435.86h74.34v43.25h-125Z" transform="translate(-31 -247.1)"/><path class="cls-1" d="M32.35,248.45H83V435.83h74.35v43.26h-125Z" transform="translate(-31 -247.1)"/><path class="cls-1" d="M32.33,248.42H83V435.81h74.34v43.25h-125Z" transform="translate(-31 -247.1)"/><path class="cls-1" d="M32.3,248.4H83V435.78h74.35V479H32.3Z" transform="translate(-31 -247.1)"/><path class="cls-1" d="M32.28,248.37H83V435.76h74.34V479h-125Z" transform="translate(-31 -247.1)"/><path class="cls-1" d="M32.25,248.35H82.94V435.73h74.35V479h-125Z" transform="translate(-31 -247.1)"/><path class="cls-1" d="M32.23,248.32H82.92V435.71h74.34V479h-125Z" transform="translate(-31 -247.1)"/><path class="cls-1" d="M32.2,248.3H82.89V435.68h74.35v43.26H32.2Z" transform="translate(-31 -247.1)"/><path class="cls-1" d="M32.18,248.27H82.87V435.66h74.34v43.25h-125Z" transform="translate(-31 -247.1)"/><path class="cls-1" d="M32.15,248.25H82.84V435.63h74.35v43.26h-125Z" transform="translate(-31 -247.1)"/><path class="cls-1" d="M32.13,248.22H82.82V435.61h74.34v43.25h-125Z" transform="translate(-31 -247.1)"/><path class="cls-1" d="M32.1,248.2H82.79V435.58h74.35v43.26H32.1Z" transform="translate(-31 -247.1)"/><path class="cls-1" d="M32.08,248.17H82.77V435.56h74.34v43.25h-125Z" transform="translate(-31 -247.1)"/><path class="cls-1" d="M32.05,248.15H82.74V435.53h74.35v43.26h-125Z" transform="translate(-31 -247.1)"/><path class="cls-1" d="M32,248.12H82.72V435.51h74.34v43.25H32Z" transform="translate(-31 -247.1)"/><path class="cls-1" d="M32,248.1H82.69V435.48H157v43.26H32Z" transform="translate(-31 -247.1)"/><path class="cls-1" d="M32,248.07H82.67V435.46H157v43.25H32Z" transform="translate(-31 -247.1)"/><path class="cls-1" d="M32,248.05H82.64V435.43H157v43.26H32Z" transform="translate(-31 -247.1)"/><path class="cls-1" d="M31.93,248H82.62V435.41H157v43.25h-125Z" transform="translate(-31 -247.1)"/><path class="cls-1" d="M31.9,248H82.59V435.38h74.35v43.26H31.9Z" transform="translate(-31 -247.1)"/><path class="cls-1" d="M31.88,248H82.57V435.36h74.34v43.25h-125Z" transform="translate(-31 -247.1)"/><path class="cls-1" d="M31.85,248H82.54V435.33h74.35v43.26h-125Z" transform="translate(-31 -247.1)"/><path class="cls-1" d="M31.83,247.92H82.52V435.31h74.34v43.25h-125Z" transform="translate(-31 -247.1)"/><path class="cls-1" d="M31.8,247.9H82.49V435.28h74.35v43.26H31.8Z" transform="translate(-31 -247.1)"/><path class="cls-1" d="M31.78,247.87H82.47V435.26h74.34v43.25h-125Z" transform="translate(-31 -247.1)"/><path class="cls-1" d="M31.75,247.85H82.44V435.23h74.35v43.26h-125Z" transform="translate(-31 -247.1)"/><path class="cls-1" d="M31.73,247.82H82.42V435.21h74.34v43.25h-125Z" transform="translate(-31 -247.1)"/><path class="cls-1" d="M31.7,247.8H82.39V435.18h74.35v43.26H31.7Z" transform="translate(-31 -247.1)"/><path class="cls-1" d="M31.68,247.77H82.37V435.16h74.34v43.25h-125Z" transform="translate(-31 -247.1)"/><path class="cls-1" d="M31.65,247.75H82.34V435.13h74.35v43.26h-125Z" transform="translate(-31 -247.1)"/><path class="cls-1" d="M31.63,247.72H82.32V435.11h74.34v43.25h-125Z" transform="translate(-31 -247.1)"/><path class="cls-1" d="M31.6,247.7H82.29V435.08h74.35v43.26H31.6Z" transform="translate(-31 -247.1)"/><path class="cls-1" d="M31.58,247.67H82.27V435.06h74.34v43.25h-125Z" transform="translate(-31 -247.1)"/><path class="cls-1" d="M31.55,247.65H82.24V435h74.35v43.26h-125Z" transform="translate(-31 -247.1)"/><path class="cls-1" d="M31.53,247.62H82.22V435h74.34v43.25h-125Z" transform="translate(-31 -247.1)"/><path class="cls-1" d="M31.5,247.6H82.19V435h74.35v43.26H31.5Z" transform="translate(-31 -247.1)"/><path class="cls-1" d="M31.48,247.57H82.17V435h74.34v43.25h-125Z" transform="translate(-31 -247.1)"/><path class="cls-1" d="M31.45,247.55H82.14V434.93h74.35v43.26h-125Z" transform="translate(-31 -247.1)"/><path class="cls-1" d="M31.43,247.52H82.12V434.91h74.34v43.25h-125Z" transform="translate(-31 -247.1)"/><path class="cls-1" d="M31.4,247.5H82.09V434.88h74.35v43.26H31.4Z" transform="translate(-31 -247.1)"/><path class="cls-1" d="M31.38,247.47H82.07V434.86h74.34v43.25h-125Z" transform="translate(-31 -247.1)"/><path class="cls-1" d="M31.35,247.45H82V434.83h74.35v43.26h-125Z" transform="translate(-31 -247.1)"/><path class="cls-1" d="M31.33,247.42H82V434.81h74.34v43.25h-125Z" transform="translate(-31 -247.1)"/><path class="cls-1" d="M31.3,247.4H82V434.78h74.35V478H31.3Z" transform="translate(-31 -247.1)"/><path class="cls-1" d="M31.28,247.37H82V434.76h74.34V478h-125Z" transform="translate(-31 -247.1)"/><path class="cls-1" d="M31.25,247.35H81.94V434.73h74.35V478h-125Z" transform="translate(-31 -247.1)"/><path class="cls-1" d="M31.23,247.32H81.92V434.71h74.34V478h-125Z" transform="translate(-31 -247.1)"/><path class="cls-1" d="M31.2,247.3H81.89V434.68h74.35v43.26H31.2Z" transform="translate(-31 -247.1)"/><path class="cls-1" d="M31.18,247.27H81.87V434.66h74.34v43.25h-125Z" transform="translate(-31 -247.1)"/><path class="cls-1" d="M31.15,247.25H81.84V434.63h74.35v43.26h-125Z" transform="translate(-31 -247.1)"/><path class="cls-1" d="M31.13,247.22H81.82V434.61h74.34v43.25h-125Z" transform="translate(-31 -247.1)"/><path class="cls-1" d="M31.1,247.2H81.79V434.58h74.35v43.26H31.1Z" transform="translate(-31 -247.1)"/><path class="cls-1" d="M31.08,247.17H81.77V434.56h74.34v43.25h-125Z" transform="translate(-31 -247.1)"/><path class="cls-1" d="M31.05,247.15H81.74V434.53h74.35v43.26h-125Z" transform="translate(-31 -247.1)"/><path class="cls-1" d="M31,247.12H81.72V434.51h74.34v43.25H31Z" transform="translate(-31 -247.1)"/><path class="cls-1" d="M31,247.1H81.69V434.48H156v43.26H31Z" transform="translate(-31 -247.1)"/><path d="M31,247.1H81.69V434.48H156v43.26H31Z" transform="translate(-31 -247.1)"/></svg>